<svg width="200" height="200" viewBox="0 0 200 200" fill="none" xmlns="http://www.w3.org/2000/svg">
<g id="Leave A Review">
<g id="leave-a-review--shopping-e-commerce-leave-a-review">
<g id="phone">
<path id="vector_6" d="M38.9147 25.354C38.0262 17.1138 42.0078 12.1379 53.2825 10.7126L111.83 9.3586C117.191 8.94366 124.052 10.0345 124.679 15.3735C124.679 15.3735 144.024 170.693 143.121 172.417C141.615 175.291 139.261 178.794 131.306 179.705L66.3021 186.377C60.8193 186.94 55.9124 182.968 55.3216 177.488L38.9147 25.354Z" fill="white"/>
<path id="vector_7" d="M145.812 164.945L128.132 14.546C127.477 8.97013 122.567 4.94599 116.982 5.37587L53.2506 10.3115C44.1402 11.0184 37.4448 15.4839 38.5138 25.3965L54.9207 177.532C55.4954 182.856 60.0287 186.833 65.2747 186.833L131.349 180.105C138.578 179.278 141.384 176.341 143.166 173.176C145.171 170.97 146.174 168.025 145.812 164.945ZM117.385 10.5805C120.177 10.3621 122.623 12.3908 122.948 15.1563L140.628 165.555C140.967 168.438 138.884 171.037 135.997 171.332L70.9931 178.005C68.1483 178.299 65.5989 176.216 65.2954 173.391L48.8874 21.2552C48.5724 18.3379 50.7276 15.7425 53.6529 15.5149L117.385 10.5805ZM131.263 179.306L66.2598 185.978C60.9989 186.506 56.2862 182.688 55.7207 177.446L39.3149 25.3103C38.5713 18.4057 41.3012 14.2195 48.0483 12.1816C45.0862 14.2804 43.2736 17.8724 43.6989 21.8149L60.1058 173.951C60.6793 179.275 65.2138 183.252 70.4598 183.252L136.53 176.524C138.113 176.362 139.603 175.854 140.918 175.045C139.218 177.007 136.491 178.707 131.266 179.306H131.263Z" fill="#434343"/>
<path id="vector_8" d="M111.583 33.8885C111.072 33.8885 111.041 33.1276 111.549 33.0851L121.691 32.2345C122.224 32.1954 122.285 32.992 121.759 33.0356L111.583 33.8885Z" fill="#FFB949"/>
<path id="vector_9" d="M110.932 28.3598C110.422 28.3598 110.391 27.5988 110.899 27.5563L121.041 26.7023C121.258 26.6782 121.458 26.8483 121.476 27.069C121.494 27.2897 121.331 27.4851 121.109 27.5034L110.932 28.3598Z" fill="#FFB949"/>
<path id="vector_10" d="M49.2622 28.4667C48.7518 28.4667 48.7197 27.7057 49.2288 27.6632L123.952 21.3046C124.476 21.254 124.555 22.0609 124.021 22.1057C124.021 22.1057 49.2737 28.4667 49.2622 28.4667Z" fill="#FFB949"/>
<path id="vector_11" d="M111.259 31.1241C110.748 31.1241 110.717 30.3632 111.225 30.3207L121.364 29.4667C121.885 29.4138 121.969 30.223 121.432 30.2678L111.259 31.1241Z" fill="#FFB949"/>
<path id="vector_12" d="M111.567 19.654C110.963 19.654 110.441 19.1919 110.379 18.5804L110.253 17.3115C110.187 16.6529 110.669 16.0655 111.331 16.0057L116.828 15.5057C117.483 15.4494 118.059 15.9276 118.122 16.5781C118.246 17.8678 118.38 18.2712 117.977 18.7563C117.771 19.0023 117.482 19.154 117.162 19.1804C117.162 19.1804 111.6 19.6529 111.567 19.6529V19.654ZM116.936 16.3069L111.405 16.808C111.19 16.8276 111.033 17.0184 111.054 17.2333L111.18 18.5011C111.202 18.7103 111.386 18.8517 111.599 18.8483C117.569 18.3402 117.211 18.4195 117.36 18.2425C117.508 18.0655 117.452 17.9862 117.322 16.6575C117.302 16.4586 117.132 16.3069 116.936 16.3069Z" fill="#FFB949"/>
<path id="vector_13" d="M108.692 18.6621L108.589 17.6759C108.533 17.1483 109.331 17.0598 109.389 17.592L109.492 18.5782C109.547 19.1081 108.748 19.192 108.692 18.6621Z" fill="#FFB949"/>
<path id="vector_14" d="M119.113 17.7149L119.009 16.7287C118.954 16.2023 119.753 16.1115 119.809 16.6448L119.913 17.631C119.968 18.1609 119.169 18.2448 119.113 17.7149Z" fill="#FFB949"/>
<path id="vector_15" d="M51.7034 25.5425L51.3115 23.077C51.2287 22.554 52.0218 22.4218 52.1057 22.9517L52.4977 25.4173C52.5816 25.9437 51.7862 26.069 51.7034 25.5425Z" fill="#FFB949"/>
<path id="vector_16" d="M54.1898 25.1989L53.5657 20.9552C53.4875 20.4264 54.2841 20.3172 54.3611 20.8379L54.9852 25.0816C55.0634 25.6092 54.2657 25.7253 54.1898 25.1989Z" fill="#FFB949"/>
<path id="vector_17" d="M56.6347 24.877L55.8726 19.0919C55.8037 18.5609 56.6014 18.4632 56.6703 18.9862L57.4324 24.7712C57.5014 25.3 56.7048 25.4046 56.6347 24.877Z" fill="#FFB949"/>
</g>
<g id="profile">
<path id="vector_18" d="M104.002 44.8632C103.569 52.9471 96.4597 59.0931 88.1804 58.6506C79.8471 58.2046 73.4896 51.2908 73.9195 43.2529C74.3505 35.1931 81.4344 29.0218 89.7425 29.4666C98.0482 29.9115 104.432 36.8046 104.001 44.8643L104.002 44.8632Z" fill="#F06325"/>
<path id="vector_20" d="M94.9409 42.4381C95.1188 39.1133 92.4851 36.2693 89.0582 36.0857C85.6314 35.9023 82.709 38.4488 82.531 41.7737C82.3529 45.0985 84.9867 47.9425 88.4136 48.126C91.8404 48.3095 94.7628 45.763 94.9409 42.4381Z" fill="#FFB949"/>
<path id="vector_21" d="M100.1 53.9287C95.0519 59.2908 86.8645 60.1333 80.7979 56.3172C81.3289 51.8896 85.3013 48.3287 90.291 48.0816C94.722 47.8644 98.6105 50.3287 100.1 53.9287Z" fill="#FFB949"/>
<path id="vector_22" d="M100.472 53.7759C99.0769 50.4046 95.7815 48.1161 91.9735 47.7276C95.6804 45.708 96.4884 40.8782 93.647 37.8115C89.739 33.5908 82.4367 36.0092 82.1286 41.7529C81.9643 44.8391 84.0769 47.5425 87.0332 48.3161C83.4597 49.5839 80.8401 52.5897 80.3976 56.2713C80.3792 56.4253 80.4516 56.577 80.5827 56.6598C86.7505 60.5379 95.1608 59.7621 100.393 54.2057C100.501 54.0908 100.533 53.9218 100.472 53.7759ZM82.9332 41.7954C83.1011 38.654 85.8965 36.3092 89.0378 36.4874C92.1919 36.6563 94.7102 39.2655 94.5401 42.4172C94.3723 45.554 91.5976 47.9069 88.4355 47.7241C85.2355 47.5529 82.7666 44.8931 82.9332 41.7954ZM81.2321 56.1138C81.8677 51.9069 85.6436 48.7161 90.3102 48.4851C94.3815 48.2942 98.0873 50.4299 99.6252 53.8437C94.7332 58.8552 87.0114 59.6069 81.2321 56.1138Z" fill="white" stroke="white"/>
<path id="vector_23" d="M111.677 51.3873C110.924 51.3655 110.159 51.9896 110.005 52.8333C109.999 52.8666 109.952 52.8712 109.939 52.8402C109.691 52.2207 109.071 51.7758 108.479 51.7563C107.571 51.7264 106.717 52.4954 106.777 53.4701C106.891 55.3425 109.861 57.3322 110.463 57.2333C111.066 57.1345 113.252 54.9046 113.266 53.2092C113.274 52.2322 112.685 51.4172 111.677 51.3873Z" fill="#F06325"/>
<path id="vector_24" d="M110.422 57.6391C109.39 57.6391 106.49 55.4264 106.373 53.4942C106.264 51.7023 108.525 50.5563 109.887 52.0253C110.971 50.2287 113.685 50.8494 113.665 53.2126C113.649 55.0701 111.242 57.6391 110.422 57.6391ZM107.517 52.5506C106.026 54.0827 109.765 56.823 110.414 56.8356C110.816 56.7333 112.848 54.7218 112.86 53.2069C112.865 52.5195 112.499 51.8149 111.663 51.7896C111.081 51.7873 110.511 52.285 110.398 52.9069C110.365 53.0816 110.193 53.2425 110.016 53.2621C109.838 53.2896 109.631 53.1586 109.562 52.9908C109.225 52.1471 108.19 51.8586 107.516 52.5517L107.517 52.5506Z" fill="#FFB949"/>
</g>
<g id="comment">
<path id="vector_25" d="M156.051 98.2517L66.6852 107.529C65.1094 107.692 63.699 106.552 63.5289 104.977L59.6094 69.2379C59.437 67.639 60.6082 66.2103 62.2094 66.0655L151.307 57.9885C152.859 57.8482 154.241 58.9689 154.423 60.5172L158.61 95.0563C158.798 96.6494 157.646 98.0873 156.051 98.2528V98.2517Z" fill="white"/>
<path id="vector_26" d="M66.3852 107.947C64.7346 107.947 63.3093 106.697 63.1277 105.021L59.2082 69.2827C59.0116 67.4563 60.3461 65.8299 62.1714 65.6655L151.269 57.5885C153.057 57.4322 154.613 58.6919 154.821 60.4701L159.008 95.0069C159.222 96.8241 157.91 98.4632 156.09 98.6517C156.003 97.8126 156.077 98.5333 156.09 98.6517L66.384 107.946L66.3852 107.947ZM151.574 58.3781L62.245 66.4655C60.8668 66.5896 59.8599 67.8184 60.0093 69.1942L63.9289 104.932C64.0748 106.284 65.2932 107.263 66.6438 107.128L156.009 97.8505C157.385 97.7069 158.372 96.4689 158.211 95.1011L154.024 60.5643C153.876 59.2988 152.822 58.3781 151.576 58.3781H151.574Z" fill="#FFB949"/>
<path id="vector_27" d="M67.4116 75.308C66.9059 75.308 66.8668 74.5551 67.3725 74.5057L145.302 66.7218C145.814 66.6505 145.927 67.4678 145.382 67.5218L67.4116 75.308Z" fill="#FFB949"/>
<path id="vector_28" d="M68.2783 83.4022C67.7726 83.4022 67.7335 82.6494 68.2392 82.5999L132.891 76.1425C133.416 76.0862 133.503 76.8896 132.97 76.9425L68.2783 83.4022Z" fill="#FFB949"/>
<path id="vector_29" d="M68.9255 91.5184C68.4198 91.5184 68.3807 90.7655 68.8865 90.7161L146.343 82.9793C146.861 82.9149 146.961 83.7264 146.422 83.7793L68.9255 91.5184Z" fill="#FFB949"/>
<path id="vector_30" d="M69.8831 99.6034C69.3773 99.6034 69.3382 98.8506 69.844 98.8011L133.285 92.4644C133.797 92.3931 133.909 93.2103 133.364 93.2644L69.8831 99.6034Z" fill="#FFB949"/>
</g>
<g id="star">
<g id="group">
<path id="vector_31" d="M133.013 109.931C135.756 114.41 135.605 114.318 135.923 114.322L140.846 114.379C141.187 114.383 141.369 114.784 141.147 115.042C137.736 119.036 137.776 118.863 137.87 119.167L139.337 123.867C139.438 124.192 139.114 124.488 138.799 124.359C133.947 122.347 134.123 122.333 133.863 122.517L129.846 125.364C129.568 125.562 129.185 125.345 129.213 125.005C129.627 119.769 129.694 119.931 129.439 119.741L125.49 116.801C125.216 116.598 125.305 116.167 125.636 116.087C130.744 114.862 130.609 114.978 130.71 114.677L132.286 110.013C132.396 109.69 132.832 109.64 133.01 109.931H133.013Z" fill="#F06325"/>
<path id="vector_32" d="M140.851 113.978L135.928 113.921L133.356 109.722C133.005 109.147 132.128 109.232 131.908 109.884L130.331 114.549L125.543 115.698C124.879 115.856 124.702 116.718 125.25 117.125L129.199 120.067L128.812 124.975C128.758 125.659 129.527 126.087 130.079 125.694L134.097 122.847L138.645 124.732C139.276 124.995 139.924 124.399 139.722 123.749L138.255 119.051L141.454 115.307C141.898 114.787 141.533 113.989 140.852 113.979L140.851 113.978ZM137.643 118.526C137.461 118.738 137.404 119.024 137.486 119.29L138.952 123.99L134.402 122.105C134.146 121.999 133.856 122.03 133.63 122.191L129.613 125.038L129.999 120.131C130.022 119.853 129.902 119.587 129.678 119.421L125.729 116.48L130.517 115.332C130.787 115.267 131.002 115.07 131.092 114.807L132.668 110.14L135.24 114.34C135.385 114.578 135.639 114.722 135.917 114.725L140.84 114.783L137.643 118.526Z" fill="white"/>
</g>
<g id="group_2">
<path id="vector_33" d="M113.69 112.101C116.433 116.58 116.282 116.488 116.6 116.492L121.523 116.549C121.865 116.553 122.046 116.954 121.824 117.213C118.413 121.206 118.453 121.033 118.547 121.337L120.014 126.037C120.115 126.362 119.791 126.659 119.476 126.529C114.625 124.517 114.8 124.503 114.541 124.687L110.523 127.534C110.245 127.732 109.862 127.515 109.89 127.175C110.304 121.939 110.372 122.101 110.116 121.911L106.167 118.971C105.893 118.768 105.982 118.337 106.313 118.257C111.421 117.032 111.287 117.148 111.388 116.847L112.964 112.183C113.073 111.86 113.51 111.81 113.688 112.101H113.69Z" fill="#F06325"/>
<path id="vector_34" d="M121.527 116.147L116.604 116.09L114.032 111.891C113.681 111.316 112.804 111.401 112.584 112.053L111.007 116.718L106.219 117.867C105.555 118.025 105.378 118.887 105.926 119.294L109.875 122.236L109.488 127.144C109.434 127.828 110.203 128.256 110.755 127.863L114.773 125.016L119.321 126.901C119.952 127.164 120.6 126.568 120.398 125.918L118.931 121.219L122.13 117.476C122.574 116.956 122.209 116.157 121.528 116.148L121.527 116.147ZM118.319 120.695C118.137 120.907 118.079 121.193 118.162 121.459L119.628 126.159L115.078 124.273C114.822 124.168 114.532 124.199 114.306 124.36L110.289 127.207L110.675 122.3C110.698 122.022 110.578 121.756 110.354 121.59L106.405 118.649L111.193 117.501C111.463 117.436 111.678 117.239 111.768 116.976L113.344 112.309L115.916 116.509C116.061 116.747 116.315 116.891 116.593 116.894L121.516 116.952L118.319 120.695Z" fill="white"/>
</g>
<g id="group_3">
<path id="vector_35" d="M94.367 114.271C97.1107 118.751 96.959 118.659 97.2774 118.662L102.2 118.719C102.542 118.723 102.723 119.124 102.502 119.383C99.09 123.376 99.1303 123.203 99.2245 123.507L100.691 128.207C100.792 128.532 100.468 128.829 100.153 128.699C95.3015 126.687 95.4774 126.674 95.2176 126.857L91.2004 129.705C90.9222 129.902 90.5394 129.685 90.567 129.345C90.9808 124.109 91.0486 124.271 90.7935 124.082L86.844 121.141C86.5705 120.938 86.659 120.507 86.99 120.428C92.0981 119.202 91.9636 119.318 92.0647 119.017L93.6406 114.353C93.7498 114.03 94.1866 113.98 94.3647 114.271H94.367Z" fill="#F06325"/>
<path id="vector_36" d="M102.204 118.318L97.2807 118.261L94.7095 114.062C94.3577 113.487 93.4807 113.572 93.2612 114.224L91.6842 118.89L86.8957 120.038C86.2324 120.196 86.0554 121.059 86.6026 121.465L90.552 124.407L90.1646 129.315C90.1106 129.999 90.8796 130.428 91.4324 130.034L95.4497 127.187L99.998 129.072C100.629 129.336 101.277 128.739 101.075 128.09L99.6083 123.391L102.807 119.647C103.251 119.128 102.886 118.329 102.205 118.319L102.204 118.318ZM98.9957 122.867C98.814 123.078 98.7566 123.364 98.8393 123.63L100.305 128.33L95.7554 126.445C95.4991 126.339 95.2095 126.37 94.983 126.531L90.9658 129.378L91.352 124.471C91.375 124.193 91.2554 123.928 91.0313 123.761L87.0819 120.821L91.8704 119.672C92.1405 119.607 92.3554 119.41 92.4451 119.147L94.0209 114.481L96.5934 118.68C96.7382 118.918 96.9922 119.062 97.2704 119.065L102.193 119.123L98.9957 122.867Z" fill="white"/>
</g>
<g id="group_4">
<path id="vector_37" d="M75.0429 116.441C77.7866 120.921 77.6348 120.829 77.9532 120.832L82.8761 120.89C83.2175 120.893 83.3991 121.294 83.1773 121.553C79.7658 125.546 79.806 125.374 79.9003 125.677L81.3671 130.377C81.4682 130.702 81.144 130.999 80.829 130.869C75.9773 128.857 76.1532 128.844 75.8934 129.028L71.8763 131.875C71.5981 132.072 71.2152 131.855 71.2428 131.515C71.6566 126.279 71.7245 126.441 71.4694 126.252L67.5198 123.311C67.2463 123.108 67.3348 122.677 67.6658 122.598C72.7738 121.372 72.6394 121.488 72.7405 121.187L74.3164 116.523C74.4256 116.2 74.8625 116.151 75.0406 116.441H75.0429Z" fill="#F06325"/>
<path id="vector_38" d="M82.8807 120.487L77.9577 120.43L75.3864 116.231C75.0347 115.656 74.1577 115.741 73.9382 116.393L72.3612 121.059L67.5727 122.207C66.9094 122.365 66.7324 123.228 67.2796 123.634L71.229 126.576L70.8416 131.484C70.7876 132.168 71.5566 132.597 72.1094 132.203L76.1267 129.356L80.675 131.241C81.306 131.505 81.9543 130.908 81.752 130.259L80.2853 125.56L83.4842 121.816C83.9278 121.297 83.5635 120.498 82.8819 120.488L82.8807 120.487ZM79.6727 125.036C79.4911 125.247 79.4336 125.533 79.5163 125.799L80.9819 130.499L76.4324 128.614C76.1761 128.508 75.8864 128.539 75.66 128.7L71.6428 131.547L72.029 126.64C72.052 126.362 71.9324 126.097 71.7083 125.93L67.7589 122.99L72.5474 121.841C72.8175 121.776 73.0324 121.579 73.1221 121.316L74.6979 116.649L77.2704 120.849C77.4152 121.087 77.6692 121.231 77.9474 121.234L82.8704 121.292L79.6727 125.036Z" fill="white"/>
</g>
<path id="vector_31_2" d="M152.013 107.931C154.756 112.41 154.605 112.318 154.923 112.322L159.846 112.379C160.187 112.383 160.369 112.784 160.147 113.043C156.736 117.036 156.776 116.863 156.87 117.167L158.337 121.867C158.438 122.192 158.114 122.489 157.799 122.359C152.947 120.347 153.123 120.333 152.863 120.517L148.846 123.364C148.568 123.562 148.185 123.345 148.213 123.005C148.627 117.769 148.694 117.931 148.439 117.741L144.49 114.801C144.216 114.598 144.305 114.167 144.636 114.087C149.744 112.862 149.609 112.978 149.71 112.677L151.286 108.013C151.396 107.69 151.832 107.64 152.01 107.931H152.013Z" fill="#F06325"/>
<path id="vector_32_2" d="M159.851 111.978L154.928 111.921L152.356 107.722C152.005 107.147 151.128 107.232 150.908 107.884L149.331 112.55L144.543 113.698C143.879 113.856 143.702 114.718 144.25 115.125L148.199 118.067L147.812 122.975C147.758 123.659 148.527 124.087 149.079 123.694L153.097 120.847L157.645 122.732C158.276 122.995 158.924 122.399 158.722 121.75L157.255 117.051L160.454 113.307C160.898 112.788 160.533 111.989 159.852 111.98L159.851 111.978ZM156.643 116.527C156.461 116.738 156.404 117.024 156.486 117.29L157.952 121.99L153.402 120.105C153.146 119.999 152.856 120.03 152.63 120.191L148.613 123.038L148.999 118.131C149.022 117.853 148.902 117.587 148.678 117.421L144.729 114.481L149.517 113.332C149.787 113.267 150.002 113.07 150.092 112.807L151.668 108.14L154.24 112.34C154.385 112.578 154.639 112.722 154.917 112.725L159.84 112.783L156.643 116.527Z" fill="white"/>
<path id="vector_40" d="M160.174 111.808L155.249 111.751L152.678 107.552C152.321 106.97 151.448 107.068 151.23 107.714L149.653 112.378L144.864 113.527C144.201 113.685 144.024 114.546 144.572 114.954L148.522 117.895L148.135 122.803C148.082 123.483 148.846 123.918 149.402 123.523L153.421 120.675L157.969 122.56C158.605 122.822 159.248 122.225 159.046 121.577L157.579 116.877L160.778 113.133C161.221 112.614 160.859 111.815 160.176 111.806L160.174 111.808ZM156.966 116.356C156.784 116.569 156.726 116.854 156.809 117.118L158.275 121.818L153.725 119.932C153.468 119.828 153.179 119.861 152.953 120.02L148.936 122.867L149.323 117.957C149.345 117.68 149.224 117.415 149.001 117.249L145.052 114.308L149.839 113.16C150.109 113.095 150.324 112.9 150.414 112.635L151.989 107.967L154.562 112.169C154.707 112.406 154.961 112.55 155.239 112.553L160.162 112.61L156.963 116.354L156.966 116.356Z" fill="white"/>
</g>
<g id="elements">
<path id="vector_44" d="M164.491 28.0287H161.905V23.3471C161.905 22.815 161.1 22.815 161.1 23.3471V28.0287H158.514C157.982 28.0287 157.982 28.8333 158.514 28.8333H161.1V33.515C161.1 34.0471 161.905 34.0471 161.905 33.515V28.8333H164.491C165.023 28.8333 165.023 28.0287 164.491 28.0287Z" fill="#FFB949"/>
<path id="vector_45" d="M27.6356 185.914H23.9839V179.418C23.9839 178.886 23.1793 178.886 23.1793 179.418V185.914H19.5276C18.9954 185.914 18.9954 186.718 19.5276 186.718H23.1793V193.215C23.1793 193.747 23.9839 193.747 23.9839 193.215V186.718H27.6356C28.1678 186.718 28.1678 185.914 27.6356 185.914Z" fill="#FFB949"/>
<path id="vector_46" d="M13.7495 74.8069C15.5111 74.8069 16.9391 73.3789 16.9391 71.6173C16.9391 69.8557 15.5111 68.4276 13.7495 68.4276C11.9878 68.4276 10.5598 69.8557 10.5598 71.6173C10.5598 73.3789 11.9878 74.8069 13.7495 74.8069Z" fill="white"/>
<path id="vector_47" d="M13.7494 75.2091C11.769 75.2091 10.1575 73.5976 10.1575 71.6171C10.1575 69.6366 11.769 68.0251 13.7494 68.0251C15.7299 68.0251 17.3414 69.6366 17.3414 71.6171C17.3414 73.5976 15.7299 75.2091 13.7494 75.2091ZM13.7494 68.8297C12.2126 68.8297 10.9621 70.0803 10.9621 71.6171C10.9621 73.1539 12.2126 74.4045 13.7494 74.4045C15.2862 74.4045 16.5356 73.1539 16.5356 71.6171C16.5356 70.0803 15.2862 68.8297 13.7494 68.8297Z" fill="#FFB949"/>
<path id="vector_48" d="M181.528 78.5357C182.868 78.5357 183.955 77.4488 183.955 76.1081C183.955 74.7674 182.868 73.6805 181.528 73.6805C180.186 73.6805 179.1 74.7674 179.1 76.1081C179.1 77.4488 180.186 78.5357 181.528 78.5357Z" fill="white"/>
<path id="vector_49" d="M181.528 78.9379C179.968 78.9379 178.698 77.669 178.698 76.108C178.698 74.5471 179.967 73.2793 181.528 73.2793C183.089 73.2793 184.356 74.5483 184.356 76.108C184.356 77.6678 183.087 78.9379 181.528 78.9379ZM181.528 74.0839C180.41 74.0839 179.502 74.9919 179.502 76.108C179.502 77.2241 180.41 78.1333 181.528 78.1333C182.645 78.1333 183.552 77.2253 183.552 76.108C183.552 74.9908 182.644 74.0839 181.528 74.0839Z" fill="#FFB949"/>
</g>
</g>
</g>
</svg>
