<svg xmlns="http://www.w3.org/2000/svg" xmlns:xlink="http://www.w3.org/1999/xlink" version="1.1" width="80pt" height="25pt" viewBox="0 0 80 25">
<defs>
<clipPath id="clip_0">
<path transform="matrix(1,0,0,-1,0,25)" d="M76.78397 6.484355H68.56108C69.27805 5.534215 70.41782 4.918596 71.70149 4.918596 72.12556 4.918596 72.39936 4.811753 74.37326 5.442635 76.99282 6.279573 78.0409 4.605698 78.14533 3.349021 78.21792 2.486645 77.55316 1.724752 76.89477 1.289748 75.42134 .3141694 72.65915 0 71.70149 0 66.73999 0 62.73234 4.076571 62.8495 9.057492 62.96284 13.83363 66.9272 17.69143 71.71041 17.68762 76.27585 17.68252 79.61238 14.44289 79.98424 10.3129 80.21474 7.742305 77.85752 6.484355 76.78397 6.484355ZM75.66967 11.15492C74.71583 12.27932 73.29208 12.99288 71.70149 12.99288 70.11091 12.99288 68.68843 12.27932 67.73331 11.15492H75.66967ZM37.28046 8.948105C37.28046 4.063851 33.3161 .1042992 28.42719 .1042992 23.53701 .1042992 19.57265 4.063851 19.57265 8.948105 19.57265 13.83236 23.53701 17.79191 28.42719 17.79191 33.3161 17.79191 37.28046 13.83236 37.28046 8.948105ZM32.35589 8.948105C32.35589 11.11549 30.59721 12.87331 28.42719 12.87331 26.2559 12.87331 24.49721 11.11549 24.49721 8.948105 24.49721 6.780717 26.2559 5.024167 28.42719 5.024167 30.59721 5.024167 32.35589 6.780717 32.35589 8.948105ZM41.47277 25C42.80866 25 43.89239 23.91885 43.89239 22.58458V2.518443C43.89112 1.184177 42.80738 .1042992 41.4715 .1042992 40.13689 .1055711 39.0557 1.185449 39.05442 2.518443V22.58458C39.05442 23.91885 40.13689 25 41.47277 25ZM61.86127 15.35233C61.83962 14.70364 61.68044 14.06767 61.3939 13.48766L57.06405 2.508268C56.44641 .8852709 55.53969 .1386416 54.25602 .1055711 52.97107 .1386416 52.06435 .8852709 51.44671 2.508268L47.11559 13.48766C46.83032 14.06767 46.67114 14.70364 46.64949 15.35233 46.69152 16.72094 47.80199 17.80463 49.14807 17.79213 50.48141 17.79213 51.14744 17.14831 51.78036 15.21623L54.25602 8.628848 56.7304 15.21623C57.36332 17.14831 58.02935 17.79213 59.36269 17.79213 60.70877 17.80463 61.81797 16.72094 61.86127 15.35233Z"/>
</clipPath>
<clipPath id="clip_1">
<path transform="matrix(1,0,0,-1,0,25)" d="M-30-718H345V94H-30Z"/>
</clipPath>
<clipPath id="clip_2">
<path transform="matrix(1,0,0,-1,0,25)" d="M.1328826 2.459546C.1328826 1.171544 1.182225 .1169433 2.469037 .1045686 3.19831 .1141934 3.916915 .4472794 4.373615 1.079765L7.069416 4.81521H2.491407C1.19427 4.81521 .1328826 3.755109 .1328826 2.459546Z"/>
</clipPath>
<clipPath id="clip_3">
<path transform="matrix(1,0,0,-1,0,25)" d="M-30-718H345V94H-30Z"/>
</clipPath>
<clipPath id="clip_4">
<path transform="matrix(1,0,0,-1,0,25)" d="M.5513804 3.796015C1.062113 4.445343 1.74114 4.81521 2.444946 4.81521H2.491407 7.069416L9.34603 7.969387 6.44752 11.98017C3.759634 8.235787 1.174309 4.634402 .5513804 3.796015ZM18.08252 20.07461C17.64681 19.58306 17.01115 19.27163 16.30597 19.27163H16.27465 11.68872C11.02794 18.3559 10.21607 17.22774 9.33364 15.99955L12.23972 11.97879 18.08252 20.07461Z"/>
</clipPath>
<clipPath id="clip_5">
<path transform="matrix(1,0,0,-1,0,25)" d="M-30-718H345V94H-30Z"/>
</clipPath>
<clipPath id="clip_6">
<path transform="matrix(1,0,0,-1,0,25)" d="M9.33364 15.99955C8.417832 14.72495 7.425965 13.34311 6.44752 11.98017L9.34603 7.969387 12.23972 11.97879 9.33364 15.99955Z"/>
</clipPath>
<clipPath id="clip_7">
<path transform="matrix(1,0,0,-1,0,25)" d="M-30-718H345V94H-30Z"/>
</clipPath>
<clipPath id="clip_8">
<path transform="matrix(1,0,0,-1,0,25)" d="M16.30631 19.27128C17.01115 19.27128 17.64681 19.58306 18.08286 20.07461 18.45421 20.49329 18.68067 21.04293 18.68067 21.6431 18.68067 22.93935 17.62547 24.00083 16.33075 24.01424 15.59287 24.01286 14.86497 23.67221 14.40311 23.03251 14.40311 23.03251 12.54017 20.45135 11.68872 19.27128H16.27465 16.30631Z"/>
</clipPath>
<clipPath id="clip_9">
<path transform="matrix(1,0,0,-1,0,25)" d="M-30-718H345V94H-30Z"/>
</clipPath>
<clipPath id="clip_10">
<path transform="matrix(1,0,0,-1,0,25)" d="M6.969265 19.27128H6.492949C6.502585 18.59377 6.224848 17.92072 5.691745 17.45048 5.633238 17.39961 5.571978 17.3508 5.50762 17.30508 4.498201 16.587 3.106076 16.77365 2.315542 17.69866L6.44752 11.98017C7.425965 13.34311 8.417832 14.72495 9.33364 15.99955L6.969265 19.27128Z"/>
</clipPath>
<clipPath id="clip_11">
<path transform="matrix(1,0,0,-1,0,25)" d="M-30-718H345V94H-30Z"/>
</clipPath>
<clipPath id="clip_12">
<path transform="matrix(1,0,0,-1,0,25)" d="M5.50762 17.30508C5.571978 17.3508 5.633238 17.39961 5.691745 17.45048 6.224848 17.92072 6.502585 18.59377 6.492949 19.27163H1.184634L2.186482 17.86297C2.227437 17.80557 2.270801 17.75126 2.315542 17.69866 3.106076 16.77365 4.498201 16.58734 5.50762 17.30508Z"/>
</clipPath>
<clipPath id="clip_13">
<path transform="matrix(1,0,0,-1,0,25)" d="M-30-718H345V94H-30Z"/>
</clipPath>
<clipPath id="clip_14">
<path transform="matrix(1,0,0,-1,0,25)" d="M16.27465 23.9998H2.482803C2.486589 23.99877 2.490375 23.99705 2.49416 23.99602 2.676565 23.98708 2.857593 23.95821 3.033458 23.90905 3.457118 23.79046 3.850148 23.5574 4.157483 23.21779L6.055178 20.59194C6.137088 20.47885 6.206608 20.3606 6.265115 20.23926 6.414136 19.93092 6.488475 19.60059 6.493293 19.27128H6.969265 11.68872C12.53467 20.44757 14.38452 23.02048 14.38452 23.02048 14.84329 23.65846 15.56637 23.99808 16.29908 23.99911 16.29082 23.99945 16.28291 23.9998 16.27465 23.9998Z"/>
</clipPath>
<clipPath id="clip_15">
<path transform="matrix(1,0,0,-1,0,25)" d="M-30-718H345V94H-30Z"/>
</clipPath>
<clipPath id="clip_16">
<path transform="matrix(1,0,0,-1,0,25)" d="M6.265115 20.23926C6.206608 20.3606 6.137088 20.47885 6.055178 20.59194L4.157483 23.21779C3.850148 23.5574 3.457118 23.79046 3.033458 23.90905 2.857593 23.95821 2.676565 23.98708 2.49416 23.99602 2.348925 24.00324 2.202313 23.99808 2.056734 23.97917 1.686074 23.93036 1.321953 23.79596 .9977552 23.56875-.06913902 22.82179-.3207196 21.3523 .4391844 20.3032L.8790202 19.69477 1.184634 19.27128H6.493293C6.488475 19.60059 6.414136 19.93092 6.265115 20.23926Z"/>
</clipPath>
<clipPath id="clip_17">
<path transform="matrix(1,0,0,-1,0,25)" d="M-30-718H345V94H-30Z"/>
</clipPath>
<clipPath id="clip_18">
<path transform="matrix(1,0,0,-1,0,25)" d="M13.02234 6.896224C13.34688 7.127219 13.711 7.263685 14.08166 7.313184 14.4093 7.357183 14.74245 7.332089 15.05804 7.242373 15.45692 7.128938 15.82793 6.912724 16.12666 6.600263L12.23972 11.97845 9.34603 7.969387 11.32288 5.233544 11.61611 4.81521H12.02944C11.98332 5.606504 12.33161 6.405017 13.02234 6.896224Z"/>
</clipPath>
<clipPath id="clip_19">
<path transform="matrix(1,0,0,-1,0,25)" d="M-30-718H345V94H-30Z"/>
</clipPath>
<clipPath id="clip_20">
<path transform="matrix(1,0,0,-1,0,25)" d="M14.08166 7.313184C13.71066 7.264028 13.34688 7.127219 13.02234 6.896568 12.33161 6.405017 11.98332 5.606504 12.02944 4.81521H17.40934L16.18241 6.540108C16.16383 6.560388 16.14524 6.580669 16.12631 6.600263 15.82793 6.912724 15.45692 7.128938 15.05804 7.242373 14.74245 7.332089 14.4093 7.356839 14.08166 7.313184Z"/>
</clipPath>
<clipPath id="clip_21">
<path transform="matrix(1,0,0,-1,0,25)" d="M-30-718H345V94H-30Z"/>
</clipPath>
<clipPath id="clip_22">
<path transform="matrix(1,0,0,-1,0,25)" d="M14.34047 .9584239C14.30193 1.015829 14.25237 1.065328 14.21141 1.122733L12.90361 2.961409 12.46377 3.579457C12.39494 3.676049 12.33471 3.776078 12.2824 3.878857 12.28033 3.882981 12.27861 3.887106 12.27655 3.890888 12.27655 3.891231 12.27655 3.891231 12.27655 3.891575 12.18431 4.07479 12.11823 4.26591 12.07694 4.460812 12.0759 4.465968 12.07521 4.471124 12.07418 4.47628 12.0673 4.510311 12.06076 4.543997 12.05525 4.578028 12.05284 4.592465 12.05147 4.607246 12.0494 4.621683 12.04596 4.646433 12.04218 4.671182 12.03942 4.696275 12.03495 4.735806 12.03185 4.775336 12.02944 4.81521H11.62437 11.61611 7.069416L4.373615 1.079765C3.916915 .4472794 3.19831 .1090372 2.469037 .1045686 2.476608 .1045686 2.483836 .1042248 2.491407 .1042248H15.64484C15.07319 .1966914 14.63094 .5280588 14.34047 .9584239Z"/>
</clipPath>
<clipPath id="clip_23">
<path transform="matrix(1,0,0,-1,0,25)" d="M-30-718H345V94H-30Z"/>
</clipPath>
<clipPath id="clip_24">
<path transform="matrix(1,0,0,-1,0,25)" d="M18.29005 3.51724C18.23154 3.640643 18.16202 3.760953 18.07976 3.875763L17.40934 4.818991C17.40934 4.818991 12.02979 4.818991 12.02944 4.818991 12.00088 4.813147 12.08244 4.462874 12.08864 4.434 12.12856 4.247348 12.16401 4.053821 12.27655 3.894325 12.27689 3.893981 14.30674 1.016516 14.30674 1.016516 14.49982 .749085 14.74038 .5339024 15.00883 .3730312 15.2081 .2540964 15.42423 .1365366 15.65723 .1052561 16.13561 .04063255 16.95987 .07913166 17.53221 .5662142 17.59691 .6122756 17.65782 .6607433 17.71633 .7116171 18.51272 1.41457 18.74055 2.569199 18.29005 3.51724Z"/>
</clipPath>
<clipPath id="clip_25">
<path transform="matrix(1,0,0,-1,0,25)" d="M-30-718H345V94H-30Z"/>
</clipPath>
<clipPath id="clip_26">
<path transform="matrix(1,0,0,-1,0,25)" d="M12.04491 4.696275C12.0489 4.671182 12.05439 4.646433 12.05938 4.621683 12.05439 4.646433 12.0489 4.671182 12.04491 4.696275Z"/>
</clipPath>
<clipPath id="clip_27">
<path transform="matrix(1,0,0,-1,0,25)" d="M-30-718H345V94H-30Z"/>
</clipPath>
</defs>
<g clip-path="url(#clip_0)">
<g clip-path="url(#clip_1)">
<path transform="matrix(1,0,0,-1,0,25)" d="M14.57265 30H85V-5H14.57265Z" fill="#2c2c2c"/>
</g>
</g>
<g clip-path="url(#clip_2)">
<g clip-path="url(#clip_3)">
<path transform="matrix(1,0,0,-1,0,25)" d="M-4.867117 9.81521H12.06942V-4.895431H-4.867117Z" fill="#cc0000"/>
</g>
</g>
<g clip-path="url(#clip_4)">
<g clip-path="url(#clip_5)">
<path transform="matrix(1,0,0,-1,0,25)" d="M-4.44862 25.07461H23.08252V-1.203985H-4.44862Z" fill="#ff6633"/>
</g>
</g>
<g clip-path="url(#clip_6)">
<g clip-path="url(#clip_7)">
<path transform="matrix(1,0,0,-1,0,25)" d="M1.44752 20.99955H17.23972V2.969387H1.44752Z" fill="#ff5319"/>
</g>
</g>
<g clip-path="url(#clip_8)">
<g clip-path="url(#clip_9)">
<path transform="matrix(1,0,0,-1,0,25)" d="M6.688723 29.01424H23.68067V14.27128H6.688723Z" fill="#cc0000"/>
</g>
</g>
<g clip-path="url(#clip_10)">
<g clip-path="url(#clip_11)">
<path transform="matrix(1,0,0,-1,0,25)" d="M-2.684458 24.27128H14.33364V6.98017H-2.684458Z" fill="#cccccc"/>
</g>
</g>
<g clip-path="url(#clip_12)">
<g clip-path="url(#clip_13)">
<path transform="matrix(1,0,0,-1,0,25)" d="M-3.815366 24.27163H11.49319V11.86676H-3.815366Z" fill="#cc0000"/>
</g>
</g>
<g clip-path="url(#clip_14)">
<g clip-path="url(#clip_15)">
<path transform="matrix(1,0,0,-1,0,25)" d="M-2.517197 28.9998H21.29908V14.27128H-2.517197Z" fill="#de001c"/>
</g>
</g>
<g clip-path="url(#clip_16)">
<g clip-path="url(#clip_17)">
<path transform="matrix(1,0,0,-1,0,25)" d="M-5 28.99914H11.49329V14.27128H-5Z" fill="#ac0000"/>
</g>
</g>
<g clip-path="url(#clip_18)">
<g clip-path="url(#clip_19)">
<path transform="matrix(1,0,0,-1,0,25)" d="M4.34603 16.97845H21.12666V-.1847901H4.34603Z" fill="#cccccc"/>
</g>
</g>
<g clip-path="url(#clip_20)">
<g clip-path="url(#clip_21)">
<path transform="matrix(1,0,0,-1,0,25)" d="M7.025386 12.33419H22.40934V-.1847901H7.025386Z" fill="#cc0000"/>
</g>
</g>
<g clip-path="url(#clip_22)">
<g clip-path="url(#clip_23)">
<path transform="matrix(1,0,0,-1,0,25)" d="M-2.530963 9.81521H20.64484V-4.895775H-2.530963Z" fill="#de001c"/>
</g>
</g>
<g clip-path="url(#clip_24)">
<g clip-path="url(#clip_25)">
<path transform="matrix(1,0,0,-1,0,25)" d="M7.023394 9.818991H23.51863V-4.91877H7.023394Z" fill="#ac0000"/>
</g>
</g>
<g clip-path="url(#clip_26)">
<g clip-path="url(#clip_27)">
<path transform="matrix(1,0,0,-1,0,25)" d="M7.044911 9.696275H17.05938V-.3783169H7.044911Z" fill="#ac0000"/>
</g>
</g>
</svg>
